<svg width="66" height="66" viewBox="0 0 66 66" fill="none" xmlns="http://www.w3.org/2000/svg">
<g id="bookshelf 1">
<g id="Group">
<g id="Group_2">
<path id="Vector" d="M21.0718 6.81878V14.3405L19.7828 16.9186L21.0718 19.4967V51.2528L5.88281 49.9637V19.4967L7.17188 16.9186L5.88281 14.3405V6.81878C5.88281 6.44624 6.18445 6.14331 6.55699 6.14331H20.3964C20.7689 6.14331 21.0718 6.44624 21.0718 6.81878Z" fill="#FF6B81"/>
<path id="Vector_2" d="M21.0718 49.9636V57.6348L5.88281 58.9239V49.9636H21.0718Z" fill="#56788B"/>
<path id="Vector_3" d="M5.88281 14.3406H21.0718V19.4968H5.88281V14.3406Z" fill="#FDEDA5"/>
<path id="Vector_4" d="M18.3652 14.3406H21.0723V19.4968H18.3652V14.3406Z" fill="#FBDF63"/>
<path id="Vector_5" d="M18.3648 49.9636H21.0718V57.6348H5.88281V55.1869H15.7893C17.2111 55.1869 18.3648 54.0332 18.3648 52.6114V49.9636Z" fill="#415E6F"/>
<g id="Group_3">
<path id="Vector_6" d="M11.2402 24.4739C10.7063 24.4739 10.2734 24.9067 10.2734 25.4407V44.3012C10.2734 44.8351 10.7063 45.268 11.2402 45.268C11.7742 45.268 12.207 44.8351 12.207 44.3012V25.4407C12.207 24.9067 11.7742 24.4739 11.2402 24.4739Z" fill="white"/>
<path id="Vector_7" d="M15.7148 27.4587C15.1809 27.4587 14.748 27.8916 14.748 28.4255V41.3162C14.748 41.8501 15.1809 42.283 15.7148 42.283C16.2488 42.283 16.6816 41.8501 16.6816 41.3162V28.4255C16.6816 27.8916 16.2489 27.4587 15.7148 27.4587Z" fill="white"/>
</g>
</g>
<g id="Group_4">
<path id="Vector_8" d="M59.2124 45.697L56.7632 47.3895L53.0391 49.9638L44.6138 49.8916L36.5082 21.6792L37.0496 19.0817L35.0837 16.724L32.989 9.4318C32.8872 9.07731 33.0921 8.70735 33.4466 8.6068L43.3492 5.76184L46.7626 4.78086C47.1171 4.67903 47.4858 4.8827 47.5876 5.23719L49.6837 12.5307L49.0739 14.8948L51.1068 17.4846L59.2124 45.697Z" fill="#90DE91"/>
<path id="Vector_9" d="M51.107 17.4846L48.3407 18.28L36.5084 21.6792L35.084 16.7241L46.9073 13.3287L49.6839 12.5308L51.107 17.4846Z" fill="#FDEDA5"/>
<path id="Vector_10" d="M60.9805 54.2706L47.0238 58.2796L46.1821 55.3508L44.6133 49.8916L56.4984 46.4769L59.2119 45.697L61.4381 53.4443C61.5387 53.7988 61.335 54.1687 60.9805 54.2706Z" fill="#56788B"/>
<g id="Group_5">
<path id="Vector_11" d="M44.3865 25.4671C44.239 24.9539 43.7033 24.6571 43.1904 24.8047C42.6772 24.9522 42.3807 25.4877 42.528 26.0009L47.736 44.1279C47.8578 44.552 48.2445 44.828 48.6647 44.828C48.7532 44.828 48.843 44.8158 48.9321 44.7902C49.4453 44.6428 49.7418 44.1073 49.5944 43.5941L44.3865 25.4671Z" fill="white"/>
<path id="Vector_12" d="M53.0711 39.4898L49.5115 27.1004C49.3641 26.5872 48.8287 26.2904 48.3153 26.438C47.8021 26.5855 47.5056 27.121 47.6531 27.6342L51.2127 40.0236C51.3345 40.4477 51.7212 40.7237 52.1415 40.7237C52.2299 40.7237 52.3197 40.7114 52.4088 40.6859C52.9221 40.5386 53.2186 40.003 53.0711 39.4898Z" fill="white"/>
</g>
</g>
<g id="Group_6">
<path id="Vector_13" d="M33.6812 12.006V57.6349H21.0703V11.2996H32.9748C33.3654 11.2996 33.6812 11.6154 33.6812 12.006Z" fill="#FFD209"/>
<path id="Vector_14" d="M33.6812 49.9636V58.9239L21.0703 57.6348V49.9636H33.6812Z" fill="#56788B"/>
<path id="Vector_15" d="M30.9742 49.9636H33.6812V57.6348H18.4922V55.1869H28.3986C29.8205 55.1869 30.9742 54.0332 30.9742 52.6114V49.9636Z" fill="#415E6F"/>
<path id="Vector_16" d="M21.0703 19.4968H33.6812V24.6531H21.0703V19.4968Z" fill="#FDEDA5"/>
<path id="Vector_17" d="M30.9746 19.4968H33.6816V24.6531H30.9746V19.4968Z" fill="#FBDF63"/>
<path id="Vector_18" d="M27.4219 29.5012C26.8879 29.5012 26.4551 29.9341 26.4551 30.468V44.1723C26.4551 44.7062 26.8879 45.1391 27.4219 45.1391C27.9558 45.1391 28.3887 44.7062 28.3887 44.1723V30.468C28.3887 29.9341 27.9558 29.5012 27.4219 29.5012Z" fill="white"/>
</g>
<path id="Vector_19" d="M66 59.441C66 60.4374 65.1918 61.2457 64.1953 61.2457H1.80469C1.30711 61.2457 0.855937 61.0433 0.528516 60.7172C0.202383 60.391 0 59.9399 0 59.441C0 58.4433 0.808242 57.635 1.80469 57.635H64.1953C64.6929 57.635 65.1441 57.8374 65.4715 58.1635C65.7976 58.4909 66 58.9421 66 59.441Z" fill="#D77D41"/>
<path id="Vector_20" d="M65.4715 58.1635C65.7976 58.4909 66 58.9421 66 59.441C66 60.4374 65.1918 61.2457 64.1953 61.2457H60.7148C61.7113 61.2457 62.5195 60.4374 62.5195 59.441C62.5195 58.9421 62.3171 58.4909 61.991 58.1635C61.6636 57.8374 61.2124 57.635 60.7148 57.635H64.1953C64.6929 57.635 65.1441 57.8374 65.4715 58.1635Z" fill="#B5612A"/>
<path id="Vector_21" d="M48.3397 18.28L46.9062 13.3287L49.6829 12.5308L51.106 17.4846L48.3397 18.28Z" fill="#FBDF63"/>
</g>
</g>
</svg>
