<svg width="66" height="66" viewBox="0 0 66 66" fill="none" xmlns="http://www.w3.org/2000/svg">
<g id="fruit 2" clip-path="url(#clip0_469_3872)">
<g id="g507">
<g id="g509">
<g id="g511">
<g id="g517">
<path id="path519" d="M47.1583 28.8261C47.1816 29.075 47.3775 29.2697 47.625 29.2929C47.8814 29.3174 48.2399 29.3406 48.6614 29.3393C50.011 29.338 51.9936 29.0918 53.2543 27.8307C54.6 26.4845 54.7896 24.3157 54.76 22.9735C54.7535 22.664 54.7342 22.3983 54.7161 22.1973C54.6929 21.9496 54.497 21.7537 54.2495 21.7305C53.1744 21.6312 50.2753 21.537 48.6201 23.194C46.965 24.8495 47.0578 27.7508 47.1583 28.8261Z" fill="#D4E16C"/>
</g>
<g id="g521">
<path id="path523" d="M47.1583 28.8261C47.1816 29.075 47.3775 29.2697 47.625 29.2929C47.8814 29.3174 48.2399 29.3406 48.6614 29.3393C48.6317 27.997 48.8211 25.8294 50.167 24.4834C51.429 23.221 53.4116 22.9747 54.76 22.9735C54.7535 22.664 54.7342 22.3983 54.7161 22.1973C54.6929 21.9496 54.497 21.7537 54.2495 21.7305C53.1744 21.6312 50.2753 21.537 48.6201 23.194C46.965 24.8495 47.0578 27.7508 47.1583 28.8261Z" fill="#A4CE39"/>
</g>
<g id="g525">
<path id="path527" d="M44.0951 24.8591C44.4472 24.4574 45.0581 24.4172 45.4595 24.7692C48.1103 27.0933 49.6306 30.4472 49.6306 33.9709C49.6306 34.505 49.1979 34.938 48.6638 34.938C48.1299 34.938 47.697 34.505 47.697 33.9709C47.697 31.0042 46.417 28.1806 44.185 26.2237C43.7834 25.8716 43.7434 25.2607 44.0951 24.8591Z" fill="#FAB684"/>
</g>
<g id="g529">
<path id="path531" d="M65.9991 49.4762C65.9991 58.5884 58.2312 66 48.6832 66C48.0954 66 47.5153 65.9716 46.9429 65.9175C38.2082 65.0819 31.3672 58.0275 31.3672 49.4762C31.3672 40.9261 38.2082 33.8704 46.9429 33.0349C47.5153 32.9807 48.0954 32.9523 48.6832 32.9523C58.2312 32.9523 65.9991 40.3652 65.9991 49.4762Z" fill="#F9D11F"/>
</g>
<g id="g533">
<path id="path535" d="M65.9996 49.4762C65.9996 58.5884 58.2317 66 48.6836 66C48.0958 66 47.5157 65.9716 46.9434 65.9175C55.678 65.0819 62.5191 58.0275 62.5191 49.4762C62.5191 40.9261 55.678 33.8704 46.9434 33.0349C47.5157 32.9807 48.0958 32.9523 48.6836 32.9523C58.2317 32.9523 65.9996 40.3652 65.9996 49.4762Z" fill="#FFA402"/>
</g>
<g id="g537">
<path id="path539" d="M19.3856 7.14205C19.3624 7.39096 19.1665 7.58561 18.919 7.60882C18.6626 7.63331 18.3041 7.65651 17.8827 7.65522C16.5329 7.65393 14.5503 7.40772 13.2896 6.14663C11.944 4.80046 11.7544 2.63162 11.784 1.28945C11.7905 0.979941 11.8098 0.714266 11.8278 0.513172C11.851 0.265543 12.047 0.0696058 12.2945 0.0464029C13.3696 -0.052855 16.2687 -0.147086 17.9238 1.50987C19.579 3.16542 19.4862 6.06671 19.3856 7.14205Z" fill="#D4E16C"/>
</g>
<g id="g541">
<path id="path543" d="M19.3868 7.14205C19.3636 7.39096 19.1676 7.58561 18.9201 7.60882C18.6637 7.63331 18.3052 7.65651 17.8838 7.65522C17.9134 6.31292 17.724 4.14536 16.3781 2.79932C15.1161 1.53695 13.1335 1.29061 11.7852 1.28945C11.7916 0.979941 11.8109 0.714266 11.829 0.513172C11.8522 0.265543 12.0481 0.0696058 12.2956 0.0464029C13.3707 -0.052855 16.2698 -0.147086 17.925 1.50987C19.5801 3.16542 19.4873 6.06671 19.3868 7.14205Z" fill="#A4CE39"/>
</g>
<g id="g545">
<path id="path547" d="M22.4496 3.17498C22.0975 2.77331 21.4866 2.7331 21.0852 3.08514C18.4344 5.40919 16.9141 8.76307 16.9141 12.2869C16.9141 12.8209 17.3468 13.2539 17.8809 13.2539C18.4148 13.2539 18.8477 12.8209 18.8477 12.2869C18.8477 9.32007 20.1277 6.49651 22.3597 4.53959C22.7612 4.18754 22.8013 3.57666 22.4496 3.17498Z" fill="#FAB684"/>
</g>
<g id="g549">
<path id="path551" d="M35.7612 24.2618C35.7612 28.2486 34.668 31.9866 32.6856 34.7859C30.7699 37.4873 28.255 38.9766 25.6034 38.9766C24.5102 38.9766 23.4339 38.7226 22.4053 38.2248C20.973 37.5298 19.4507 37.1778 17.8806 37.1778C16.3092 37.1778 14.7881 37.5298 13.356 38.2248C12.326 38.7226 11.2509 38.9766 10.1578 38.9766C9.3341 38.9766 8.52199 38.8322 7.73824 38.5523C6.00059 37.9335 4.39571 36.6479 3.07571 34.7859C1.09184 31.9866 0 28.2486 0 24.2618C0 20.2737 1.09184 16.537 3.07571 13.7376C4.99125 11.035 7.50634 9.54701 10.1578 9.54701C11.2509 9.54701 12.326 9.7998 13.356 10.2987C16.1971 11.6758 19.4494 11.6925 22.2995 10.3478C22.3356 10.3322 22.3704 10.3155 22.4053 10.2987C23.4339 9.7998 24.5102 9.54701 25.6034 9.54701C28.255 9.54701 30.7699 11.035 32.6842 13.7376C34.668 16.537 35.7612 20.2737 35.7612 24.2618Z" fill="#FF6B81"/>
</g>
<g id="g553">
<path id="path555" d="M35.7612 24.2618C35.7612 28.2486 34.6681 31.9866 32.6856 34.7859C30.77 37.4873 28.255 38.9766 25.6034 38.9766C24.5103 38.9766 23.4339 38.7226 22.4054 38.2248C20.9731 37.5298 19.4507 37.1778 17.8806 37.1778C16.3093 37.1778 14.7882 37.5298 13.356 38.2248C12.3261 38.7226 11.251 38.9766 10.1579 38.9766C9.33414 38.9766 8.52203 38.8322 7.73828 38.5523C10.9635 38.5523 12.5839 34.599 17.7517 34.599C19.715 34.599 21.615 35.0387 23.4004 35.9038C24.0759 36.2314 24.7732 36.3978 25.4745 36.3978C27.2663 36.3978 29.0349 35.2953 30.4529 33.2941C32.1299 30.9268 33.0542 27.72 33.0542 24.2618C33.0542 20.8036 32.1299 17.5955 30.4529 15.2282C29.1432 13.3804 26.8834 10.7398 22.2995 10.3478C22.3356 10.3322 22.3704 10.3155 22.4054 10.2987C23.4339 9.7998 24.5103 9.54701 25.6034 9.54701C28.255 9.54701 30.77 11.035 32.6842 13.7376C34.6681 16.537 35.7612 20.2737 35.7612 24.2618Z" fill="#ED2061"/>
</g>
<g id="g557">
<path id="path559" d="M25.5371 32.3197C25.5371 32.8536 25.9697 33.2864 26.5034 33.2864C27.0372 33.2864 27.4698 32.8536 27.4698 32.3197C27.4698 31.7858 27.0372 31.353 26.5034 31.353C25.9697 31.353 25.5371 31.7858 25.5371 32.3197Z" fill="#ED2061"/>
</g>
<g id="g561">
<path id="path563" d="M9.03125 15.028C9.03125 15.5619 9.46386 15.9946 9.99766 15.9946C10.5313 15.9946 10.9639 15.5619 10.9639 15.028C10.9639 14.4942 10.5313 14.0613 9.99766 14.0613C9.46386 14.0613 9.03125 14.4942 9.03125 15.028Z" fill="#ED2061"/>
</g>
<g id="g565">
<path id="path567" d="M5.80664 18.1251C5.80664 18.6591 6.23925 19.0918 6.77292 19.0918C7.30672 19.0918 7.73933 18.6591 7.73933 18.1251C7.73933 17.5913 7.30672 17.1585 6.77292 17.1585C6.23925 17.1585 5.80664 17.5913 5.80664 18.1251Z" fill="#ED2061"/>
</g>
<g id="g569">
<path id="path571" d="M41.4405 57.4926C41.4405 56.9586 41.0079 56.5259 40.4742 56.5259C39.9404 56.5259 39.5078 56.9586 39.5078 57.4926C39.5078 58.0264 39.9404 58.4592 40.4742 58.4592C41.0079 58.4592 41.4405 58.0264 41.4405 57.4926Z" fill="#FFA402"/>
</g>
<g id="g573">
<path id="path575" d="M54.8526 40.2011C54.8526 39.6671 54.42 39.2344 53.8863 39.2344C53.3525 39.2344 52.9199 39.6671 52.9199 40.2011C52.9199 40.7349 53.3525 41.1677 53.8863 41.1677C54.42 41.1677 54.8526 40.7349 54.8526 40.2011Z" fill="#FFA402"/>
</g>
<g id="g577">
<path id="path579" d="M58.2061 43.556C58.2061 43.0221 57.7735 42.5894 57.2398 42.5894C56.706 42.5894 56.2734 43.0221 56.2734 43.556C56.2734 44.0898 56.706 44.5227 57.2398 44.5227C57.7735 44.5227 58.2061 44.0898 58.2061 43.556Z" fill="#FFA402"/>
</g>
</g>
</g>
</g>
</g>
<defs>
<clipPath id="clip0_469_3872">
<rect width="66" height="66" fill="white"/>
</clipPath>
</defs>
</svg>
