<svg width="66" height="66" viewBox="0 0 66 66" fill="none" xmlns="http://www.w3.org/2000/svg">
<g id="medal 1" clip-path="url(#clip0_474_4129)">
<path id="Vector" d="M19.5188 28.5337L5.10547 55.6889L18.194 54.4797L24.5289 65.998L38.9422 38.8428L19.5188 28.5337Z" fill="#E95454"/>
<g id="Group">
<path id="Vector_2" d="M21.1705 58.0907C21.5749 57.222 21.1519 56.1841 20.3059 55.7342L19.4764 55.2926C18.6469 54.8201 18.3312 53.7698 18.7831 52.9197C19.2412 52.0551 20.3183 51.7249 21.1829 52.183L23.527 53.4273C24.2512 53.8111 25.1592 53.5325 25.5327 52.8041L25.5904 52.6927C26.0196 52.0055 25.7658 51.0976 25.0519 50.72L18.0402 46.9996C17.1859 46.5456 16.7671 45.5118 17.1653 44.641C17.6048 43.7145 18.715 43.3493 19.6084 43.8239L26.1125 47.2761C26.8368 47.6599 27.7447 47.3813 28.1285 46.657L28.1656 46.5621L28.176 46.5415C28.5907 45.7821 28.2998 44.8288 27.5342 44.4223L23.886 42.4868C23.0317 42.0328 22.6129 40.999 23.0173 40.1179C23.4527 39.2017 24.567 38.8262 25.4604 39.3008L29.4904 41.4406C30.2436 41.8409 31.1432 41.5066 31.5332 40.7473C31.5394 40.7369 31.5394 40.7369 31.5435 40.7266C31.5497 40.7163 31.5497 40.7163 31.5539 40.706C31.9645 39.9569 31.7375 39.0243 30.9823 38.626L26.6346 36.3191C25.7906 35.8713 25.3717 34.8375 25.77 33.9667C26.2095 33.0402 27.3196 32.675 28.2131 33.1496L38.939 38.8427L24.5257 65.9979L20.5535 58.7778C20.8094 58.6045 21.0322 58.3899 21.1705 58.0907Z" fill="#ED6362"/>
<path id="Vector_3" d="M46.4801 28.5337L60.8934 55.6889L47.8048 54.4797L41.47 65.998L27.0566 38.8428L46.4801 28.5337Z" fill="#ED6362"/>
</g>
<path id="Vector_4" d="M44.8292 58.0908C44.4247 57.2221 44.8477 56.1842 45.6938 55.7344L46.5233 55.2928C47.3528 54.8202 47.6685 53.7699 47.2166 52.9198C46.7585 52.0552 45.6814 51.725 44.8168 52.1831L42.4727 53.4274C41.7484 53.8112 40.8405 53.5326 40.467 52.8042L40.4092 52.6928C39.98 52.0057 40.2338 51.0977 40.9478 50.7201L47.9615 46.9976C48.8158 46.5437 49.2347 45.5099 48.8364 44.6391C48.3969 43.7126 47.2868 43.3474 46.3933 43.822L39.8892 47.2741C39.165 47.6579 38.257 47.3794 37.8732 46.6551L37.8361 46.5602L37.8258 46.5395C37.411 45.7802 37.702 44.8269 38.4675 44.4204L42.1157 42.4848C42.97 42.0309 43.3889 40.9971 42.9844 40.116C42.549 39.1998 41.4348 38.8242 40.5413 39.2988L36.5072 41.4428C35.754 41.8431 34.8544 41.5088 34.4644 40.7495C34.4582 40.7391 34.4582 40.7391 34.4541 40.7288C34.4479 40.7185 34.4479 40.7185 34.4437 40.7082C34.0331 39.9591 34.2601 39.0265 35.0153 38.6282L39.363 36.3213C40.207 35.8735 40.6259 34.8397 40.2276 33.9689C39.7881 33.0424 38.678 32.6772 37.7845 33.1518L27.0586 38.8449L41.4719 66.0001L45.4441 58.78C45.1903 58.6046 44.9674 58.39 44.8292 58.0908Z" fill="#E95454"/>
<path id="Vector_5" d="M33.0007 48.1655C46.3012 48.1655 57.0834 37.3832 57.0834 24.0827C57.0834 10.7822 46.3012 0 33.0007 0C19.7002 0 8.91797 10.7822 8.91797 24.0827C8.91797 37.3832 19.7002 48.1655 33.0007 48.1655Z" fill="#FFCC5B"/>
<path id="Vector_6" d="M36.2673 21.3198H21.0059C19.8194 21.3198 18.8455 20.3458 18.8455 19.1593L18.862 19.0107V18.9777C18.8455 17.7252 19.8669 16.7017 21.1215 16.7017H31.6988C33.0999 16.7017 34.338 15.6638 34.4205 14.2606C34.4865 12.7935 33.3166 11.5554 31.8474 11.5554H20.6427C19.4067 11.5554 18.4823 10.5175 18.4988 9.27943C18.4988 9.26293 18.4988 9.26292 18.4988 9.24642C18.4988 9.22991 18.4988 9.22991 18.4988 9.2134C18.4823 7.97739 19.4047 6.9374 20.6427 6.9374H32.3674C33.752 6.9374 34.99 5.89947 35.0726 4.51282C35.1386 3.02919 33.9686 1.80762 32.4994 1.80762H23.9133C15.158 5.41662 8.98828 14.0254 8.98828 24.0827C8.98828 34.1401 15.158 42.7468 23.9154 46.3517H34.8167C36.2013 46.3517 37.4394 45.3138 37.5219 43.9271C37.5879 42.4435 36.418 41.224 34.9488 41.224L22.5473 41.2219C21.0843 41.2219 19.9061 39.9983 19.9845 38.5167C20.0567 37.1301 21.3031 36.088 22.6918 36.088H27.4996C28.8822 36.0488 29.9985 34.916 29.9985 33.5231C29.9985 32.1055 28.845 30.95 27.4254 30.95H20.1372C18.9507 30.95 17.9767 29.9781 17.9933 28.7895V28.6079C17.9107 27.4379 18.8517 26.4475 20.0216 26.4475H36.1187C37.5198 26.4475 38.7579 25.4096 38.8405 24.0229C38.9065 22.5413 37.7344 21.3198 36.2673 21.3198Z" fill="#FDBC4B"/>
<path id="Vector_7" d="M32.9993 41.2715C23.5198 41.2715 15.8086 33.5583 15.8086 24.0808C15.8086 14.6033 23.5198 6.89209 32.9993 6.89209C42.4789 6.89209 50.1901 14.6053 50.1901 24.0828C50.1901 33.5603 42.4789 41.2715 32.9993 41.2715Z" fill="#FFDB70"/>
<path id="Vector_8" opacity="0.2" d="M50.1906 24.0826C50.1906 14.9373 43.0056 7.45727 33.9862 6.94141H32.3849C31.3284 6.94141 30.3854 7.73378 30.3214 8.79027C30.2719 9.92105 31.1633 10.8537 32.2838 10.8537L41.7427 10.8558C42.8591 10.8558 43.7567 11.7885 43.6968 12.9193C43.6411 13.9778 42.6919 14.7723 41.6313 14.7723H37.9645C36.9101 14.8032 36.0579 15.6657 36.0579 16.7284C36.0579 17.8097 36.939 18.6908 38.0202 18.6908H43.5792C44.4851 18.6908 45.2259 19.4336 45.2135 20.3374V20.4736C45.2754 21.3671 44.5594 22.1203 43.6659 22.1203H31.3903C30.3214 22.1203 29.3784 22.9126 29.3145 23.9691C29.2649 25.0999 30.1564 26.0326 31.2768 26.0326H42.9148C43.8206 26.0326 44.5614 26.7754 44.5614 27.6792L44.549 27.7927V27.8175C44.5614 28.7729 43.7814 29.5529 42.826 29.5529H34.7579C33.689 29.5529 32.746 30.3452 32.682 31.4141C32.6325 32.5325 33.5239 33.4776 34.6444 33.4776H43.1892C44.1322 33.4776 44.8359 34.27 44.8235 35.213C44.8235 35.2253 44.8235 35.2253 44.8235 35.2377C44.8235 35.2501 44.8235 35.2501 44.8235 35.2625C44.8359 36.2055 44.1322 36.9979 43.1892 36.9979H34.2482C33.1917 36.9979 32.2487 37.7902 32.1848 38.8467C32.1352 39.9796 33.0266 40.9102 34.1471 40.9102H36.5057C44.3117 39.2842 50.1906 32.3571 50.1906 24.0826Z" fill="white"/>
<path id="Vector_9" d="M45.0012 20.2755H36.64L34.0545 12.3229C33.7222 11.3015 32.2758 11.3015 31.9435 12.3229L29.3601 20.2755H20.9989C19.9238 20.2755 19.4761 21.6519 20.3468 22.2833L27.1109 27.1985L24.5274 35.1511C24.1952 36.1725 25.3652 37.0226 26.236 36.3912L33 31.476L39.7641 36.3912C40.6349 37.0226 41.8048 36.1725 41.4726 35.1511L38.8892 27.1985L45.6532 22.2833C46.5219 21.6519 46.0762 20.2755 45.0012 20.2755Z" fill="#EC9922"/>
</g>
<defs>
<clipPath id="clip0_474_4129">
<rect width="66" height="66" fill="white"/>
</clipPath>
</defs>
</svg>
