<svg width="66" height="66" viewBox="0 0 66 66" fill="none" xmlns="http://www.w3.org/2000/svg">
<g id="online-learning 1" clip-path="url(#clip0_474_4434)">
<g id="Group">
<path id="Vector" d="M63.2423 20.8048V61.1915H2.75977V20.8048C2.75977 18.7306 4.44225 17.0481 6.5179 17.0481H59.4843C61.5598 17.0481 63.2423 18.7306 63.2423 20.8048Z" fill="#DFEAEF"/>
<path id="Vector_2" d="M2.75977 55.1934H63.2423V61.1916H2.75977V55.1934Z" fill="#B4D0D5"/>
<path id="Vector_3" d="M58.5938 21.6958V52.934H7.40714V21.6958H58.5938Z" fill="#7FB6AC"/>
<path id="Vector_4" d="M66.0008 57.5818H0.00195312V59.7892C0.00195312 62.8065 2.44795 65.2525 5.46526 65.2525H60.5375C63.5548 65.2525 66.0008 62.8065 66.0008 59.7892V57.5818Z" fill="#DFEAEF"/>
<path id="Vector_5" d="M36.5805 61.4171H29.4222C27.3661 61.4171 25.6992 59.7504 25.6992 57.6942V57.5818H40.3033V57.6942C40.3033 59.7504 38.6365 61.4171 36.5805 61.4171Z" fill="#B4D0D5"/>
<path id="Vector_6" d="M11.4349 65.2525H5.46446C2.44612 65.2525 0 62.8065 0 59.7893V57.5823H5.97042V59.7893C5.97042 62.8065 8.41655 65.2525 11.4349 65.2525Z" fill="#B4D0D5"/>
<path id="Vector_7" d="M47.6813 20.8381V26.4487C47.6813 29.7991 45.68 32.8414 42.5846 34.1268C36.4574 36.6739 29.5442 36.6739 23.417 34.1268C20.3216 32.8414 18.3203 29.7991 18.3203 26.4487V20.8381H47.6813Z" fill="#665E66"/>
<path id="Vector_8" d="M36.8492 35.7394C32.3448 36.4405 27.6904 35.9042 23.417 34.1273C20.3216 32.8419 18.3203 29.7995 18.3203 26.4491V20.8386H26.0158V26.4491C26.0158 29.7995 28.017 32.8419 31.1125 34.1273C32.9675 34.8988 34.8944 35.4366 36.8492 35.7394Z" fill="#454045"/>
<path id="Vector_9" d="M47.681 20.8381V23.0877L35.6645 29.4538C33.9979 30.3356 32.0033 30.3356 30.3368 29.4538L18.3203 23.0877V20.8381H47.681Z" fill="#454045"/>
<path id="Vector_10" d="M54.924 11.6119L35.6651 1.40952C33.9991 0.526903 32.0041 0.526903 30.338 1.40952L11.079 11.6119C8.91637 12.7575 8.91637 15.8558 11.079 17.0014L30.338 27.2039C32.004 28.0865 33.9989 28.0865 35.6651 27.2039L54.924 17.0014C57.0867 15.8558 57.0867 12.7577 54.924 11.6119Z" fill="#665E66"/>
<path id="Vector_11" d="M41.5672 38.1119C41.1272 38.1119 40.7704 37.7551 40.7704 37.3151V24.3761L32.4008 14.8319C32.1107 14.501 32.1437 13.9976 32.4745 13.7075C32.8052 13.4173 33.3088 13.4504 33.599 13.7812L42.1663 23.5509C42.2937 23.6963 42.3641 23.8829 42.3641 24.0762V37.315C42.3639 37.7552 42.0073 38.1119 41.5672 38.1119Z" fill="#EAB14D"/>
<g id="Group_2">
<path id="Vector_12" d="M40.4347 37.4968L38.8387 40.261C37.8541 41.9663 39.0848 44.0979 41.054 44.0979H42.0801C44.0491 44.0979 45.2798 41.9663 44.2953 40.261L42.6993 37.4968C42.1961 36.6251 40.938 36.6251 40.4347 37.4968Z" fill="#F4DD45"/>
</g>
<g id="Group_3">
<path id="Vector_13" d="M32.3056 49.2826H12.367C11.817 49.2826 11.3711 48.8367 11.3711 48.2867C11.3711 47.7367 11.817 47.2908 12.367 47.2908H32.3055C32.8555 47.2908 33.3014 47.7367 33.3014 48.2867C33.3014 48.8367 32.8556 49.2826 32.3056 49.2826Z" fill="#665E66"/>
<path id="Vector_14" d="M25.6983 45.0939H12.367C11.817 45.0939 11.3711 44.648 11.3711 44.098C11.3711 43.5479 11.817 43.1021 12.367 43.1021H25.6983C26.2483 43.1021 26.6942 43.5479 26.6942 44.098C26.6942 44.648 26.2483 45.0939 25.6983 45.0939Z" fill="#665E66"/>
</g>
</g>
</g>
<defs>
<clipPath id="clip0_474_4434">
<rect width="66" height="66" fill="white"/>
</clipPath>
</defs>
</svg>
