<svg width="66" height="66" viewBox="0 0 66 66" fill="none" xmlns="http://www.w3.org/2000/svg">
<g id="paint-palette 1" clip-path="url(#clip0_474_4400)">
<g id="Group">
<path id="Vector" d="M40.7332 4.05992C39.4971 3.92419 38.2495 3.84633 36.9794 3.89441C27.0774 4.25135 18.4028 10.1351 13.5859 15.5242L13.584 42.1579L15.2645 42.3486C20.3307 42.9263 23.8372 44.5371 25.6895 47.139C27.7364 50.0149 27.1908 53.3873 26.9755 54.3541C26.2584 57.5655 28.1519 60.8347 31.3959 61.4595C33.2294 61.8108 35.0724 61.9844 36.902 61.9844C38.1906 61.9844 39.4665 61.8677 40.7333 61.6987C55.0568 59.7871 66.1166 47.6021 65.9986 32.7676C65.8692 16.9934 53.1259 5.41974 40.7332 4.05992Z" fill="#FABE2C"/>
<g id="Group_2">
<path id="Vector_2" d="M43.7013 26.1664C41.441 23.9024 41.441 20.2222 43.6993 17.96C45.9652 15.6979 49.6435 15.6979 51.9056 17.96C54.1678 20.2222 54.1678 23.9024 51.9056 26.1644V26.1664C49.6439 28.4245 45.9635 28.4248 43.7013 26.1664Z" fill="#00C8C8"/>
</g>
<g id="Group_3">
<path id="Vector_3" d="M27.2619 19.5576C26.4388 16.5008 28.2339 13.2924 31.3631 12.4558C34.4447 11.6307 37.6378 13.466 38.4666 16.557C39.2971 19.6492 37.4646 22.831 34.3654 23.6606C31.2592 24.493 28.0886 22.6501 27.2619 19.5576Z" fill="#474F54"/>
</g>
<g id="Group_4">
<path id="Vector_4" d="M20.4232 34.5993C17.3322 33.7703 15.493 30.583 16.3218 27.4958C17.1455 24.4148 20.3126 22.5589 23.4236 23.3946C26.522 24.2229 28.3591 27.3994 27.5267 30.4981C26.6948 33.6065 23.507 35.4255 20.4232 34.5993Z" fill="#FF435B"/>
</g>
<g id="Group_5">
<path id="Vector_5" d="M50.3076 42.6054C47.2172 41.7783 45.3724 38.6064 46.2064 35.5019C47.0378 32.3958 50.2261 30.5734 53.3099 31.4007C56.4009 32.2297 58.2401 35.417 57.4111 38.5042C56.5828 41.603 53.3987 43.4369 50.3076 42.6054Z" fill="#99341F"/>
</g>
<path id="Vector_6" d="M11.7304 0.000488281C6.93617 0.000488281 5.92969 18.0055 5.92969 33C5.92969 33.674 5.9382 34.2923 5.94335 34.9336L10.0384 36.8672H11.7304H14.4695L17.5183 34.9336C17.5231 34.292 17.5311 33.6848 17.5311 33C17.5311 18.0054 16.5246 0.000488281 11.7304 0.000488281Z" fill="#B35324"/>
<path id="Vector_7" d="M11.7304 34.9336H5.94336C6.01245 43.4843 6.50255 49.1016 6.53013 49.6185H11.7304H16.9307C16.9814 48.6744 17.4544 43.8547 17.5183 34.9336H11.7304Z" fill="#FFF7E6"/>
<path id="Vector_8" d="M11.7303 46.5349C7.46473 46.5349 3.99604 50.0036 3.99604 54.2692V58.1363C3.99604 60.2681 2.13182 62.1324 0 62.1324V65.9995H7.86317C9.22582 65.9995 10.5147 65.7203 11.7303 65.2869C16.222 63.6854 19.4646 59.3039 19.4646 54.2692C19.4646 50.0036 15.9959 46.5349 11.7303 46.5349Z" fill="#474F54"/>
<path id="Vector_9" d="M19.4647 54.2692C19.4647 50.0036 15.996 46.5349 11.7305 46.5349V65.2869C16.2221 63.6854 19.4647 59.3039 19.4647 54.2692Z" fill="#32393F"/>
<path id="Vector_10" d="M40.7343 54.2694C43.9379 54.2694 46.535 51.6723 46.535 48.4687C46.535 45.265 43.9379 42.668 40.7343 42.668C37.5307 42.668 34.9336 45.265 34.9336 48.4687C34.9336 51.6723 37.5307 54.2694 40.7343 54.2694Z" fill="#FFF7E6"/>
</g>
</g>
<defs>
<clipPath id="clip0_474_4400">
<rect width="66" height="66" fill="white"/>
</clipPath>
</defs>
</svg>
