<svg width="66" height="66" viewBox="0 0 66 66" fill="none" xmlns="http://www.w3.org/2000/svg">
<g id="playground 1">
<g id="Group">
<g id="Group_2">
<g id="Group_3">
<path id="Vector" d="M59.6172 24.4954H64.6164V64.3173H59.6172V24.4954Z" fill="#B76C6C"/>
</g>
<g id="Group_4">
<path id="Vector_2" d="M11.6016 15.9795H31.2116V33.0114H11.6016V15.9795Z" fill="#FFD30F"/>
</g>
<g id="Group_5">
<path id="Vector_3" d="M27.3438 15.98H31.2109V33.0111H27.3438V15.98Z" fill="#FFC300"/>
</g>
<g id="Group_6">
<path id="Vector_4" d="M11.6016 15.98H15.4688V33.0111H11.6016V15.98Z" fill="#FFE277"/>
</g>
<g id="Group_7">
<path id="Vector_5" d="M21.4073 1.68335C21.4377 1.68335 35.4099 15.9535 35.3947 15.969C35.381 15.9829 7.43411 15.9834 7.41993 15.969C7.40472 15.9535 21.3769 1.68335 21.4073 1.68335Z" fill="#FF4975"/>
</g>
<g id="Group_8">
<path id="Vector_6" d="M29.1355 15.9775C30.6179 15.9749 31.5228 15.9723 31.5254 15.9697C31.5383 15.9568 23.3141 7.55472 19.4727 3.6437C20.638 2.45776 21.3985 1.68433 21.4062 1.68433C21.4372 1.68433 35.408 15.9542 35.3926 15.9697C35.3874 15.9749 32.768 15.9775 29.1355 15.9775Z" fill="#FF6B81"/>
</g>
<g id="Group_9">
<path id="Vector_7" d="M11.2871 15.9697C11.2923 15.9749 13.8884 15.9775 17.4978 15.9775C12.0296 15.98 7.42509 15.9749 7.41993 15.9697C7.40447 15.9542 21.3753 1.68433 21.4063 1.68433C21.414 1.68433 22.1745 2.45776 23.3399 3.6437C19.4985 7.55472 11.2742 15.9568 11.2871 15.9697Z" fill="#FF74A5"/>
</g>
<g id="Group_10">
<path id="Vector_8" d="M21.4062 28.8449C23.8084 28.8449 25.7558 26.8975 25.7558 24.4953C25.7558 22.0931 23.8084 20.1458 21.4062 20.1458C19.004 20.1458 17.0566 22.0931 17.0566 24.4953C17.0566 26.8975 19.004 28.8449 21.4062 28.8449Z" fill="#FF6B81"/>
</g>
<g id="Group_11">
<path id="Vector_9" d="M26.2129 33.0115H31.2121V64.3176H26.2129V33.0115Z" fill="#B76C6C"/>
</g>
<g id="Group_12">
<path id="Vector_10" d="M11.6016 33.0115H16.6008V64.3176H11.6016V33.0115Z" fill="#B76C6C"/>
</g>
<g id="Group_13">
<path id="Vector_11" d="M31.2109 24.4954H64.6165V29.3608H31.2109V24.4954Z" fill="#5FCDFF"/>
</g>
<g id="Group_14">
<path id="Vector_12" d="M60.748 24.4956H64.6152V29.3605H60.748V24.4956Z" fill="#30B6FF"/>
</g>
<g id="Group_15">
<path id="Vector_13" d="M31.2109 24.4956H35.0781V29.3605H31.2109V24.4956Z" fill="#5FCDFF"/>
</g>
<g id="Group_16">
<path id="Vector_14" d="M39.1602 53.4429H54.4732V57.7764H39.1602V53.4429Z" fill="#5FCDFF"/>
</g>
<g id="Group_17">
<path id="Vector_15" d="M23.3427 40.0727H14.2006C10.8284 40.0727 8.08789 37.3296 8.08789 33.96C8.08789 31.5185 9.52648 29.407 11.6019 28.4273V21.4097C5.77789 22.6137 1.38477 27.7828 1.38477 33.96C1.38477 41.0266 7.13398 46.7758 14.2006 46.7758H23.3427C25.8331 46.7758 27.8595 48.8022 27.8595 51.2927C27.8595 53.0149 26.903 54.5618 25.3639 55.3326L22.3784 56.8254V64.3174L28.3597 61.3268C32.1856 59.4164 34.5627 55.5698 34.5627 51.2927C34.5627 45.1052 29.5302 40.0727 23.3427 40.0727Z" fill="#90DE91"/>
</g>
<g id="Group_18">
<path id="Vector_16" d="M14.2006 40.0727H10.3334C6.96125 40.0727 4.2207 37.3296 4.2207 33.96C4.2207 31.5185 5.6593 29.407 7.73469 28.4273V22.8998C8.91805 22.2037 10.22 21.6958 11.6019 21.4097V28.4273C9.52648 29.407 8.08789 31.5185 8.08789 33.96C8.08789 37.3296 10.8284 40.0727 14.2006 40.0727Z" fill="#90DE91"/>
</g>
<g id="Group_19">
<path id="Vector_17" d="M34.5618 51.2928C34.5618 55.5699 32.1848 59.4164 28.3588 61.3268L22.3776 64.3174V62.3839L24.4916 61.3268C28.3176 59.4164 30.6946 55.5699 30.6946 51.2928C30.6946 45.1053 25.6621 40.0728 19.4746 40.0728H23.3418C29.5293 40.0728 34.5618 45.1053 34.5618 51.2928Z" fill="#90DE91"/>
</g>
<g id="Group_20">
<path id="Vector_18" d="M18.0678 46.7758H14.2006C7.13398 46.7758 1.38477 41.0266 1.38477 33.96C1.38477 27.7828 5.77789 22.6137 11.6019 21.4097V22.8998C7.80688 25.1247 5.25195 29.2497 5.25195 33.96C5.25195 41.0266 11.0012 46.7758 18.0678 46.7758Z" fill="#90DE91"/>
</g>
<g id="Group_21">
<path id="Vector_19" d="M31.7272 51.2928C31.7272 53.0149 30.7707 54.5618 29.2316 55.3327L26.2461 56.8254V62.3839L22.3789 64.3174V56.8254L25.3644 55.3327C26.9035 54.5618 27.86 53.0149 27.86 51.2928C27.86 48.8023 25.8336 46.7759 23.3431 46.7759H27.2103C29.7008 46.7759 31.7272 48.8023 31.7272 51.2928Z" fill="#90DE91"/>
</g>
</g>
</g>
</g>
</svg>
