<svg width="66" height="66" viewBox="0 0 66 66" fill="none" xmlns="http://www.w3.org/2000/svg">
<g id="school 1">
<g id="Group">
<g id="Group_2">
<path id="Vector" d="M62.565 64.6823H3.43425C2.2527 64.6823 1.29492 63.7245 1.29492 62.5429V54.9714C1.29492 53.7898 2.2527 52.832 3.43425 52.832H62.565C63.7465 52.832 64.7043 53.7898 64.7043 54.9714V62.5429C64.7044 63.7244 63.7465 64.6823 62.565 64.6823Z" fill="#B1B7E3"/>
<path id="Vector_2" d="M20.5169 52.832L13.584 64.6823H51.305L43.6671 52.832H20.5169Z" fill="#FEF2A8"/>
<path id="Vector_3" d="M62.565 52.832H57.2895C58.1185 52.832 58.7906 53.504 58.7906 54.3331V57.765C58.7906 58.594 58.1186 59.2661 57.2895 59.2661H2.79604C1.96704 59.2661 1.29492 58.594 1.29492 57.765V62.5429C1.29492 63.7245 2.2527 64.6823 3.43425 64.6823H62.565C63.7465 64.6823 64.7043 63.7245 64.7043 62.5429V54.9714C64.7044 53.7898 63.7465 52.832 62.565 52.832Z" fill="#B1B7E3"/>
<path id="Vector_4" d="M16.7528 59.2659L13.584 64.6821H51.305L47.814 59.2659H16.7528Z" fill="#EEB6A8"/>
<path id="Vector_5" d="M33.2676 2.35864H42.3711V9.08935H33.2676V2.35864Z" fill="#FF6B81"/>
<path id="Vector_6" d="M32.4261 0.799805C31.5651 0.799805 30.8672 1.4977 30.8672 2.35867V15.8824H33.985V2.35867C33.985 1.4977 33.2871 0.799805 32.4261 0.799805Z" fill="#FEF2A8"/>
<path id="Vector_7" d="M61.6561 52.8317H2.97852V22.9488C2.97852 21.1669 4.42304 19.7224 6.20491 19.7224H58.4296C60.2115 19.7224 61.656 21.1669 61.656 22.9488V52.8317H61.6561Z" fill="#FFA585"/>
<path id="Vector_8" d="M44.5365 52.8318H20.0977V17.1084C20.0977 15.3564 21.5178 13.9363 23.2698 13.9363H41.3644C43.1163 13.9363 44.5365 15.3564 44.5365 17.1084V52.8318Z" fill="#FFA585"/>
<path id="Vector_9" d="M20.0977 38.95H44.5365V52.8319H20.0977V38.95Z" fill="#B07676"/>
<path id="Vector_10" d="M20.0977 38.95H24.4357V52.8319H20.0977V38.95Z" fill="#FFC7B6"/>
<path id="Vector_11" d="M40.0156 38.95H44.5364V52.8319H40.0156V38.95Z" fill="#FFC7B6"/>
<path id="Vector_12" d="M33.5984 29.9922C36.8411 29.2256 38.8485 25.9755 38.0819 22.7328C37.3154 19.4901 34.0653 17.4828 30.8226 18.2493C27.5799 19.0158 25.5726 22.2659 26.3391 25.5086C27.1056 28.7513 30.3557 30.7587 33.5984 29.9922Z" fill="white"/>
<g id="Group_3">
<path id="Vector_13" d="M13.6834 47.5052H9.24417C8.75445 47.5052 8.35742 47.1082 8.35742 46.6185V39.3118C8.35742 38.8221 8.75445 38.425 9.24417 38.425H13.6834C14.1732 38.425 14.5702 38.8221 14.5702 39.3118V46.6185C14.5702 47.1082 14.1732 47.5052 13.6834 47.5052Z" fill="#B2E7F1"/>
<path id="Vector_14" d="M13.6834 34.1292H9.24417C8.75445 34.1292 8.35742 33.7322 8.35742 33.2425V25.9358C8.35742 25.4461 8.75445 25.0491 9.24417 25.0491H13.6834C14.1732 25.0491 14.5702 25.4461 14.5702 25.9358V33.2425C14.5702 33.7322 14.1732 34.1292 13.6834 34.1292Z" fill="#B2E7F1"/>
<path id="Vector_15" d="M55.4315 47.5052H50.9922C50.5025 47.5052 50.1055 47.1082 50.1055 46.6185V39.3118C50.1055 38.8221 50.5025 38.425 50.9922 38.425H55.4315C55.9212 38.425 56.3182 38.8221 56.3182 39.3118V46.6185C56.3182 47.1082 55.9212 47.5052 55.4315 47.5052Z" fill="#B2E7F1"/>
<path id="Vector_16" d="M55.4315 34.1292H50.9922C50.5025 34.1292 50.1055 33.7322 50.1055 33.2425V25.9358C50.1055 25.4461 50.5025 25.0491 50.9922 25.0491H55.4315C55.9212 25.0491 56.3182 25.4461 56.3182 25.9358V33.2425C56.3182 33.7322 55.9212 34.1292 55.4315 34.1292Z" fill="#B2E7F1"/>
</g>
<path id="Vector_17" opacity="0.5" d="M44.5371 20H50.1062V52.832H44.5371V20Z" fill="#EF7C85"/>
<path id="Vector_18" opacity="0.5" d="M14.4648 20H20.034V52.832H14.4648V20Z" fill="#EF7C85"/>
<path id="Vector_19" d="M24.7324 39.1802H39.9698V45.5382H24.7324V39.1802Z" fill="#A45775"/>
</g>
<g id="Group_4">
<path id="Vector_20" d="M32.2119 30.9463C35.9679 30.9463 39.0235 27.8907 39.0235 24.1348C39.0235 20.3788 35.9679 17.3232 32.2119 17.3232C28.456 17.3232 25.4004 20.3788 25.4004 24.1348C25.4004 27.8906 28.456 30.9463 32.2119 30.9463ZM32.2119 18.8775C35.1108 18.8775 37.4691 21.2359 37.4691 24.1346C37.4691 27.0334 35.1106 29.3918 32.2119 29.3918C29.3132 29.3918 26.9547 27.0334 26.9547 24.1346C26.9547 21.2359 29.3131 18.8775 32.2119 18.8775Z" fill="#440A29"/>
<path id="Vector_21" d="M33.4387 26.4401C33.5902 26.59 33.7877 26.6647 33.9852 26.6647C34.1855 26.6647 34.3858 26.5877 34.5377 26.434C34.8394 26.1289 34.8369 25.6368 34.5316 25.3351L32.9899 23.8102V20.9747C32.9899 20.5456 32.6419 20.1975 32.2127 20.1975C31.7836 20.1975 31.4355 20.5454 31.4355 20.9747V24.1347C31.4355 24.3422 31.5187 24.5413 31.6663 24.6872L33.4387 26.4401Z" fill="#440A29"/>
</g>
</g>
</g>
</svg>
