<svg width="66" height="66" viewBox="0 0 66 66" fill="none" xmlns="http://www.w3.org/2000/svg">
<g id="teacher 1">
<g id="Group">
<g id="Group_2">
<path id="Vector" d="M14.1966 25.4536C14.1084 25.4601 14.0205 25.467 13.9308 25.467C12.7077 25.467 11.6308 24.8434 10.9992 23.8972C10.1585 24.4634 9.60547 25.424 9.60547 26.5138C9.60547 27.7371 10.3036 28.7954 11.3217 29.3177C11.0252 29.9684 10.8556 30.6893 10.8556 31.4511C10.8556 34.2987 13.1641 36.6074 16.0119 36.6074C16.859 36.6074 17.6564 36.3991 18.3616 36.0371C18.8859 36.8023 19.7656 37.305 20.7633 37.305C22.2935 37.305 23.5451 36.1235 23.6619 34.6235C18.9432 33.7683 15.1974 30.1208 14.1966 25.4536Z" fill="#6D2E03"/>
<path id="Vector_2" d="M41.9786 26.5138C41.9786 25.423 41.4243 24.4619 40.5823 23.8958C39.9506 24.8427 38.8735 25.4671 37.6497 25.4671C37.5599 25.4671 37.4718 25.4604 37.3839 25.4537C36.3833 30.1196 32.6391 33.7666 27.9219 34.6231C28.0387 36.1233 29.2903 37.3054 30.8207 37.3054C31.8185 37.3054 32.6984 36.8026 33.2225 36.0374C33.9276 36.3994 34.725 36.6077 35.5722 36.6077C38.42 36.6077 40.7285 34.299 40.7285 31.4515C40.7285 30.6896 40.5588 29.9688 40.2623 29.3181C41.2804 28.7955 41.9786 27.7372 41.9786 26.5138Z" fill="#6D2E03"/>
</g>
<g id="Group_3">
<g id="Group_4">
<g id="Group_5">
<g id="Group_6">
<g id="Group_7">
<path id="Vector_3" d="M31.8807 31.2838H19.697C15.5906 31.2838 12.2617 27.9549 12.2617 23.8485V12.2353C12.2617 6.8862 16.5979 2.55005 21.947 2.55005H29.6311C34.9802 2.55005 39.3163 6.8862 39.3163 12.2353V23.8485C39.316 27.9549 35.9872 31.2838 31.8807 31.2838Z" fill="#8C3F0A"/>
</g>
</g>
<g id="Group_8">
<g id="Group_9">
<path id="Vector_4" d="M35.0698 4.21997C36.1235 5.7702 36.7397 7.64166 36.7397 9.65724V21.2704C36.7397 25.3768 33.4108 28.7057 29.3044 28.7057H17.1206C15.7287 28.7057 14.4265 28.3223 13.3125 27.6564C14.6106 29.8285 16.9843 31.2838 19.6988 31.2838H31.8827C35.9892 31.2838 39.318 27.955 39.318 23.8485V12.2354C39.3178 8.9021 37.6335 5.96253 35.0698 4.21997Z" fill="#7C3108"/>
</g>
</g>
<g id="Group_10">
<g id="Group_11">
<path id="Vector_5" d="M35.8044 4.77271C37.1925 6.44874 38.027 8.59993 38.027 10.9463V22.5594C38.027 26.6659 34.6981 29.9948 30.5917 29.9948H18.408C16.6832 29.9948 15.0972 29.4059 13.8359 28.4206C15.1967 30.1626 17.3154 31.2838 19.697 31.2838H31.881C35.9874 31.2838 39.3163 27.9549 39.3163 23.8485V12.2353C39.3161 9.2326 37.9494 6.54929 35.8044 4.77271Z" fill="#6D2E03"/>
</g>
</g>
<g id="Group_12">
<g id="Group_13">
<path id="Vector_6" d="M14.8686 8.73755C14.7823 8.73755 14.6946 8.71589 14.6142 8.67C14.3667 8.52898 14.2803 8.21419 14.4211 7.96669C15.961 5.26172 18.8449 3.5813 21.9474 3.5813H27.5419C27.8265 3.5813 28.0575 3.8123 28.0575 4.09692C28.0575 4.38155 27.8265 4.61255 27.5419 4.61255H21.9474C19.2148 4.61255 16.6743 6.09317 15.3175 8.47664C15.2221 8.64371 15.0478 8.73755 14.8686 8.73755ZM29.6312 4.61281H29.6044C29.3198 4.61281 29.0888 4.38181 29.0888 4.09718C29.0888 3.81256 29.3198 3.58156 29.6044 3.58156H29.6312C29.9158 3.58156 30.1468 3.81256 30.1468 4.09718C30.1468 4.38181 29.9158 4.61281 29.6312 4.61281Z" fill="#995222"/>
</g>
</g>
<g id="Group_14">
<g id="Group_15">
<g id="Group_16">
<path id="Vector_7" d="M45.1031 63.4501H6.47656C5.05266 63.4501 3.89844 62.2959 3.89844 60.872V51.5923C3.89844 44.4731 9.66983 38.7017 16.7891 38.7017H34.7906C41.9098 38.7017 47.6812 44.4731 47.6812 51.5923V60.872C47.6812 62.2959 46.527 63.4501 45.1031 63.4501Z" fill="#D10028"/>
</g>
</g>
</g>
<g id="Group_17">
<g id="Group_18">
<path id="Vector_8" d="M43.2348 41.8577C45.1993 44.12 46.3912 47.0714 46.3912 50.3028V59.5825C46.3912 61.0064 45.237 62.1607 43.8131 62.1607H5.18656C4.80861 62.1607 4.45051 62.0774 4.12695 61.9312C4.53146 62.8261 5.42968 63.4497 6.47563 63.4497H45.1021C46.526 63.4497 47.6803 62.2955 47.6803 60.8716V51.5919C47.6803 47.7043 45.9568 44.2213 43.2348 41.8577Z" fill="#B7022D"/>
</g>
</g>
<g id="Group_19">
<g id="Group_20">
<path id="Vector_9" d="M33.3085 63.4501H18.2695V42.0532C18.2695 40.2021 19.77 38.7017 21.6211 38.7017H29.9569C31.808 38.7017 33.3085 40.2021 33.3085 42.0532V63.4501Z" fill="#E63950"/>
</g>
</g>
<g id="Group_21">
<g id="Group_22">
<path id="Vector_10" d="M29.9569 38.7017H21.6211C19.77 38.7017 18.2695 40.2021 18.2695 42.0532V48.3915C18.2695 48.7857 18.6936 49.034 19.0376 48.8412L25.7891 45.0534L32.5407 48.8412C32.8844 49.034 33.3088 48.7855 33.3088 48.3915V42.0532C33.3085 40.2021 31.808 38.7017 29.9569 38.7017Z" fill="#E8566F"/>
</g>
</g>
<path id="Vector_11" d="M25.7891 34.8149C24.3219 34.8149 22.9181 34.5468 21.6211 34.0598V40.1414C21.6211 40.3773 21.702 40.6062 21.8503 40.7898L24.9871 44.6703C25.3999 45.1808 26.1784 45.1808 26.5912 44.6703L29.728 40.7898C29.8763 40.6062 29.9572 40.3773 29.9572 40.1414V34.0598C28.6601 34.5468 27.2561 34.8149 25.7891 34.8149Z" fill="#FCC4AE"/>
<path id="Vector_12" d="M25.7891 34.8149C24.3219 34.8149 22.9181 34.5468 21.6211 34.0598V35.3827C22.9236 35.8488 24.3263 36.104 25.7891 36.104C27.252 36.104 28.6545 35.8485 29.9572 35.3827V34.0598C28.6601 34.5468 27.2561 34.8149 25.7891 34.8149Z" fill="#F2AD97"/>
<g id="Group_23">
<g id="Group_24">
<g id="Group_25">
<path id="Vector_13" d="M37.6486 18.4202V22.9556C37.6486 23.8128 37.5555 24.6479 37.3828 25.4535C37.471 25.46 37.5589 25.467 37.6486 25.467C39.5946 25.467 41.1721 23.8894 41.1721 21.9434C41.1721 19.9975 39.5946 18.4202 37.6486 18.4202Z" fill="#FFD2C0"/>
<path id="Vector_14" d="M39.8676 19.2085C40.36 19.8146 40.656 20.5865 40.656 21.428C40.656 23.2564 39.2633 24.7589 37.4808 24.9337C37.4516 25.1078 37.4194 25.2805 37.3828 25.4517C37.471 25.4584 37.5584 25.4669 37.6484 25.4669C39.5943 25.4669 41.1719 23.8893 41.1719 21.9434C41.1714 20.8392 40.6627 19.8546 39.8676 19.2085Z" fill="#FCC4AE"/>
<path id="Vector_15" d="M37.6483 20.1389V22.9555C37.6483 23.2218 37.6364 23.4851 37.6191 23.7467C37.6289 23.7467 37.6385 23.7483 37.6483 23.7483C38.645 23.7483 39.453 22.9403 39.453 21.9436C39.453 20.9469 38.645 20.1389 37.6483 20.1389Z" fill="#F2AD97"/>
</g>
<g id="Group_26">
<path id="Vector_16" d="M13.9298 22.9556V18.4202C11.9838 18.4202 10.4062 19.9977 10.4062 21.9437C10.4062 23.8897 11.9838 25.4672 13.9298 25.4672C14.0195 25.4672 14.1077 25.4605 14.1956 25.4538C14.0228 24.6479 13.9298 23.8128 13.9298 22.9556Z" fill="#FFD2C0"/>
<path id="Vector_17" d="M13.9297 22.9555V20.1389C12.933 20.1389 12.125 20.9469 12.125 21.9436C12.125 22.9403 12.933 23.7483 13.9297 23.7483C13.9395 23.7483 13.949 23.747 13.9588 23.7467C13.9415 23.4851 13.9297 23.2218 13.9297 22.9555Z" fill="#F2AD97"/>
</g>
</g>
<g id="Group_27">
<g id="Group_28">
<g id="Group_29">
<path id="Vector_18" d="M37.6484 14.925H13.9297V22.9557C13.9297 29.5054 19.2393 34.815 25.7891 34.815C32.3388 34.815 37.6484 29.5054 37.6484 22.9557V14.925Z" fill="#FFD2C0"/>
</g>
</g>
</g>
<g id="Group_30">
<g id="Group_31">
<path id="Vector_19" d="M36.3588 14.925V21.6666C36.3588 28.2163 31.0491 33.526 24.4994 33.526C21.5526 33.526 18.8593 32.4488 16.7852 30.6699C18.9603 33.206 22.1856 34.815 25.7885 34.815C32.3382 34.815 37.6479 29.5054 37.6479 22.9557V14.925H36.3588Z" fill="#FCC4AE"/>
</g>
</g>
</g>
</g>
</g>
<g id="Group_32">
<g id="Group_33">
<g id="Group_34">
<path id="Vector_20" d="M19.1542 14.925H17.4531L18.3036 12.1316L19.1542 14.925Z" fill="#FFD2C0"/>
</g>
</g>
<g id="Group_35">
<g id="Group_36">
<path id="Vector_21" d="M24.2577 14.925H22.5566L23.4072 12.1316L24.2577 14.925Z" fill="#FFD2C0"/>
</g>
</g>
<g id="Group_37">
<g id="Group_38">
<path id="Vector_22" d="M31.0602 14.925H29.3594L30.2096 12.1316L31.0602 14.925Z" fill="#FFD2C0"/>
</g>
</g>
</g>
</g>
<g id="Group_39">
<g id="Group_40">
<g id="Group_41">
<g id="Group_42">
<path id="Vector_23" d="M53.1804 33.4912H38.5215C37.8097 33.4912 37.2324 34.0685 37.2324 34.7803V62.161C37.2324 62.8728 37.8097 63.4501 38.5215 63.4501H58.2166C58.9284 63.4501 59.5056 62.8728 59.5056 62.161V39.8141L53.1804 33.4912Z" fill="#F1F2F2"/>
</g>
</g>
<g id="Group_43">
<g id="Group_44">
<path id="Vector_24" d="M58.2166 38.5256V60.872C58.2166 61.5839 57.6393 62.1611 56.9275 62.1611H37.2324C37.2324 62.8729 37.8097 63.4502 38.5215 63.4502H58.2166C58.9284 63.4502 59.5056 62.8729 59.5056 62.1611V39.8142L58.2166 38.5256Z" fill="#E6E7E8"/>
</g>
</g>
<g id="Group_45">
<g id="Group_46">
<path id="Vector_25" d="M53.1797 38.5258V33.491L59.5046 39.8138L54.469 39.8146C53.7569 39.8151 53.1797 39.2379 53.1797 38.5258Z" fill="#D1D3D4"/>
</g>
</g>
</g>
<g id="Group_47">
<g id="Group_48">
<path id="Vector_26" d="M55.3025 47.8032H41.4355C41.1509 47.8032 40.9199 47.5722 40.9199 47.2876C40.9199 47.003 41.1509 46.772 41.4355 46.772H55.3025C55.5871 46.772 55.8181 47.003 55.8181 47.2876C55.8181 47.5722 55.5871 47.8032 55.3025 47.8032Z" fill="#939598"/>
</g>
</g>
<g id="Group_49">
<g id="Group_50">
<path id="Vector_27" d="M55.3025 50.3813H41.4355C41.1509 50.3813 40.9199 50.1503 40.9199 49.8657C40.9199 49.5811 41.1509 49.3501 41.4355 49.3501H55.3025C55.5871 49.3501 55.8181 49.5811 55.8181 49.8657C55.8181 50.1503 55.5871 50.3813 55.3025 50.3813Z" fill="#939598"/>
</g>
</g>
<g id="Group_51">
<g id="Group_52">
<path id="Vector_28" d="M55.3025 52.9595H41.4355C41.1509 52.9595 40.9199 52.7285 40.9199 52.4438C40.9199 52.1592 41.1509 51.9282 41.4355 51.9282H55.3025C55.5871 51.9282 55.8181 52.1592 55.8181 52.4438C55.8181 52.7285 55.5871 52.9595 55.3025 52.9595Z" fill="#939598"/>
</g>
</g>
<g id="Group_53">
<g id="Group_54">
<path id="Vector_29" d="M55.3025 55.5376H41.4355C41.1509 55.5376 40.9199 55.3066 40.9199 55.022C40.9199 54.7373 41.1509 54.5063 41.4355 54.5063H55.3025C55.5871 54.5063 55.8181 54.7373 55.8181 55.022C55.8181 55.3066 55.5871 55.5376 55.3025 55.5376Z" fill="#939598"/>
</g>
</g>
<g id="Group_55">
<g id="Group_56">
<path id="Vector_30" d="M55.3025 58.1157H41.4355C41.1509 58.1157 40.9199 57.8847 40.9199 57.6001C40.9199 57.3155 41.1509 57.0845 41.4355 57.0845H55.3025C55.5871 57.0845 55.8181 57.3155 55.8181 57.6001C55.8181 57.8847 55.5871 58.1157 55.3025 58.1157Z" fill="#939598"/>
</g>
</g>
</g>
<g id="Group_57">
<g id="Group_58">
<path id="Vector_31" d="M24.8232 61.3761C24.1575 60.992 23.9438 60.1319 24.3517 59.4807L38.6067 36.7246C38.7178 36.547 38.9495 36.4895 39.131 36.5942C39.3125 36.6988 39.3785 36.9286 39.2803 37.1134L26.7004 60.8365C26.3404 61.5156 25.4889 61.7603 24.8232 61.3761Z" fill="#FFC91D"/>
</g>
</g>
<g id="Group_59">
<g id="Group_60">
<g id="Group_61">
<path id="Vector_32" d="M19.5284 63.45H9.29688V55.0142H19.5284C20.2402 55.0142 20.8175 55.5914 20.8175 56.3032V62.161C20.8175 62.8728 20.2402 63.45 19.5284 63.45Z" fill="#D10028"/>
</g>
</g>
<g id="Group_62">
<g id="Group_63">
<path id="Vector_33" d="M19.5284 55.0142V60.8719C19.5284 61.5837 18.9512 62.161 18.2394 62.161H9.29688V63.45H19.5284C20.2402 63.45 20.8175 62.8728 20.8175 62.161V56.3032C20.8175 55.5911 20.2402 55.0142 19.5284 55.0142Z" fill="#B7022D"/>
</g>
</g>
<g id="Group_64">
<g id="Group_65">
<path id="Vector_34" d="M22.1074 63.45H27.2539C27.9657 63.45 28.5429 62.8728 28.5429 62.161V56.3032C28.5429 55.5914 27.9657 55.0142 27.2539 55.0142H22.1074C21.3956 55.0142 20.8184 55.5914 20.8184 56.3032V62.161C20.8184 62.8728 21.3953 63.45 22.1074 63.45Z" fill="#FFD2C0"/>
</g>
</g>
<g id="Group_66">
<g id="Group_67">
<path id="Vector_35" d="M27.2536 55.0142V60.8719C27.2536 61.5837 26.6764 62.161 25.9646 62.161H20.8184C20.8184 62.8728 21.3956 63.45 22.1074 63.45H27.2539C27.9657 63.45 28.5429 62.8728 28.5429 62.161V56.3032C28.5427 55.5911 27.9657 55.0142 27.2536 55.0142Z" fill="#FCC4AE"/>
</g>
</g>
</g>
</g>
</g>
</svg>
